<?xml version="1.0" encoding="utf-8"?>
<!-- Generator: Adobe Illustrator 28.0.0, SVG Export Plug-In . SVG Version: 6.00 Build 0)  -->
<svg version="1.1" id="Layer_1" xmlns="http://www.w3.org/2000/svg" xmlns:xlink="http://www.w3.org/1999/xlink" x="0px" y="0px"
	 viewBox="0 0 899 179" style="enable-background:new 0 0 899 179;" xml:space="preserve">
<style type="text/css">
	.st0{fill:#FFC71A;}
	.st1{fill:#FFFFFF;}
</style>
<g>
	<polygon class="st0" points="107.47,117.67 79.41,102.77 14.98,139.37 14.98,170.22 	"/>
	<polygon class="st0" points="34.39,46.2 61.59,30.75 34.33,15.39 14.98,4.5 14.98,57.23 	"/>
	<polygon class="st0" points="145.44,39.59 145.44,8.75 118.63,23.99 14.98,82.88 14.98,113.72 118.63,54.83 118.63,154.19 
		145.44,169.72 	"/>
	<path class="st0" d="M224.2,61.85c2.99,3.78,4.49,8.12,4.49,13.01c0,4.42-1.08,8.3-3.25,11.65c-2.17,3.35-5.3,5.97-9.4,7.86
		c-4.1,1.89-8.95,2.84-14.55,2.84H165.9V14.67h34.06c5.6,0,10.43,0.91,14.49,2.72c4.06,1.81,7.13,4.33,9.22,7.57
		c2.09,3.23,3.13,6.9,3.13,11c0,4.81-1.28,8.83-3.84,12.06c-2.56,3.23-5.97,5.52-10.23,6.86C217.38,55.74,221.2,58.07,224.2,61.85
		 M182.46,48.72h15.14c3.94,0,6.98-0.89,9.1-2.66c2.13-1.77,3.19-4.32,3.19-7.63c0-3.31-1.07-5.87-3.19-7.69
		c-2.13-1.81-5.16-2.72-9.1-2.72h-15.14V48.72z M208.53,80.89c2.25-1.89,3.37-4.57,3.37-8.04c0-3.55-1.18-6.33-3.55-8.34
		c-2.36-2.01-5.56-3.02-9.58-3.02h-16.32v22.23h16.67C203.15,83.73,206.28,82.78,208.53,80.89"/>
	<path class="st0" d="M266.83,33.71c3.43-1.97,7.35-2.96,11.77-2.96v17.38h-4.38c-5.2,0-9.13,1.22-11.77,3.67
		c-2.64,2.44-3.96,6.7-3.96,12.77v32.64h-16.56V31.7h16.56v10.17C260.62,38.4,263.4,35.68,266.83,33.71"/>
	<path class="st0" d="M289.42,46.6c2.64-5.12,6.23-9.07,10.76-11.83c4.53-2.76,9.6-4.14,15.2-4.14c4.89,0,9.16,0.99,12.83,2.96
		c3.66,1.97,6.6,4.46,8.81,7.45V31.7h16.67v65.51h-16.67v-9.58c-2.13,3.07-5.07,5.62-8.81,7.63c-3.74,2.01-8.06,3.01-12.95,3.01
		c-5.52,0-10.54-1.42-15.08-4.26c-4.53-2.84-8.12-6.84-10.76-12c-2.64-5.16-3.96-11.1-3.96-17.8
		C285.45,57.59,286.77,51.72,289.42,46.6 M334.65,54.11c-1.58-2.88-3.71-5.08-6.39-6.62c-2.68-1.54-5.56-2.31-8.63-2.31
		c-3.07,0-5.91,0.75-8.51,2.25c-2.6,1.5-4.71,3.69-6.33,6.56c-1.62,2.88-2.42,6.29-2.42,10.23c0,3.94,0.81,7.39,2.42,10.35
		c1.61,2.96,3.74,5.22,6.39,6.8c2.64,1.58,5.46,2.37,8.45,2.37c3.08,0,5.95-0.77,8.63-2.31c2.68-1.54,4.81-3.74,6.39-6.62
		c1.58-2.88,2.36-6.33,2.36-10.35C337.01,60.43,336.22,56.98,334.65,54.11"/>
	<path class="st0" d="M425.11,38.14c4.81,4.93,7.21,11.81,7.21,20.64v38.43h-16.56V61.02c0-5.2-1.3-9.2-3.9-12
		c-2.6-2.8-6.15-4.2-10.64-4.2c-4.57,0-8.18,1.4-10.82,4.2c-2.64,2.8-3.96,6.8-3.96,12v36.18h-16.56V31.7h16.56v8.16
		c2.21-2.84,5.03-5.06,8.45-6.68c3.43-1.61,7.19-2.42,11.29-2.42C414,30.75,420.3,33.21,425.11,38.14"/>
	<path class="st0" d="M447.76,46.6c2.64-5.12,6.25-9.07,10.82-11.83c4.57-2.76,9.65-4.14,15.25-4.14c4.26,0,8.32,0.93,12.18,2.78
		c3.86,1.85,6.94,4.32,9.23,7.39V9.7h16.79v87.51h-16.79v-9.7c-2.05,3.23-4.93,5.84-8.63,7.8c-3.71,1.97-8,2.96-12.89,2.96
		c-5.52,0-10.57-1.42-15.14-4.26c-4.57-2.84-8.18-6.84-10.82-12c-2.64-5.16-3.96-11.1-3.96-17.8
		C443.8,57.59,445.11,51.72,447.76,46.6 M492.99,54.11c-1.58-2.88-3.71-5.08-6.39-6.62c-2.68-1.54-5.56-2.31-8.63-2.31
		s-5.91,0.75-8.51,2.25c-2.6,1.5-4.71,3.69-6.32,6.56c-1.62,2.88-2.43,6.29-2.43,10.23c0,3.94,0.81,7.39,2.43,10.35
		c1.61,2.96,3.74,5.22,6.38,6.8c2.64,1.58,5.46,2.37,8.46,2.37c3.08,0,5.95-0.77,8.63-2.31c2.68-1.54,4.81-3.74,6.39-6.62
		c1.58-2.88,2.36-6.33,2.36-10.35C495.35,60.43,494.57,56.98,492.99,54.11"/>
	<polygon class="st1" points="618.22,14.67 618.22,97.21 601.66,97.21 601.66,43.52 579.55,97.21 567.02,97.21 544.78,43.52 
		544.78,97.21 528.23,97.21 528.23,14.67 547.03,14.67 573.28,76.04 599.54,14.67 	"/>
	<path class="st1" d="M694.97,69.42h-47.89c0.39,4.73,2.05,8.44,4.97,11.12c2.92,2.68,6.5,4.02,10.76,4.02
		c6.15,0,10.53-2.64,13.13-7.92h17.86c-1.89,6.31-5.52,11.49-10.88,15.55c-5.36,4.06-11.94,6.09-19.75,6.09
		c-6.31,0-11.96-1.4-16.97-4.2c-5.01-2.8-8.91-6.76-11.71-11.89c-2.8-5.12-4.2-11.04-4.2-17.74c0-6.78,1.38-12.73,4.14-17.86
		c2.76-5.12,6.62-9.07,11.59-11.83c4.97-2.76,10.68-4.14,17.15-4.14c6.23,0,11.8,1.34,16.73,4.02c4.93,2.68,8.75,6.48,11.47,11.41
		c2.72,4.93,4.08,10.58,4.08,16.97C695.44,65.4,695.28,67.53,694.97,69.42 M678.29,58.3c-0.08-4.26-1.62-7.67-4.61-10.23
		c-3-2.56-6.66-3.84-11-3.84c-4.1,0-7.55,1.24-10.35,3.73c-2.8,2.48-4.51,5.93-5.14,10.35H678.29z"/>
	<path class="st1" d="M707.21,46.6c2.64-5.12,6.25-9.07,10.82-11.83c4.57-2.76,9.65-4.14,15.26-4.14c4.26,0,8.32,0.93,12.18,2.78
		c3.86,1.85,6.94,4.32,9.22,7.39V9.7h16.79v87.51h-16.79v-9.7c-2.05,3.23-4.93,5.84-8.63,7.8c-3.71,1.97-8,2.96-12.89,2.96
		c-5.52,0-10.57-1.42-15.14-4.26c-4.57-2.84-8.18-6.84-10.82-12c-2.64-5.16-3.96-11.1-3.96-17.8
		C703.24,57.59,704.56,51.72,707.21,46.6 M752.44,54.11c-1.58-2.88-3.71-5.08-6.39-6.62c-2.68-1.54-5.56-2.31-8.63-2.31
		c-3.08,0-5.91,0.75-8.51,2.25c-2.6,1.5-4.71,3.69-6.33,6.56c-1.62,2.88-2.42,6.29-2.42,10.23c0,3.94,0.81,7.39,2.42,10.35
		c1.61,2.96,3.74,5.22,6.38,6.8c2.64,1.58,5.46,2.37,8.46,2.37c3.07,0,5.95-0.77,8.63-2.31c2.68-1.54,4.81-3.74,6.39-6.62
		c1.58-2.88,2.36-6.33,2.36-10.35C754.8,60.43,754.01,56.98,752.44,54.11"/>
	<rect x="787.68" y="31.7" class="st1" width="16.56" height="65.51"/>
	<path class="st1" d="M820.26,46.6c2.64-5.12,6.23-9.07,10.76-11.83c4.53-2.76,9.6-4.14,15.2-4.14c4.89,0,9.16,0.99,12.83,2.96
		c3.66,1.97,6.6,4.46,8.81,7.45V31.7h16.67v65.51h-16.67v-9.58c-2.13,3.07-5.07,5.62-8.81,7.63c-3.74,2.01-8.06,3.01-12.95,3.01
		c-5.52,0-10.54-1.42-15.08-4.26c-4.53-2.84-8.12-6.84-10.76-12c-2.64-5.16-3.96-11.1-3.96-17.8
		C816.29,57.59,817.61,51.72,820.26,46.6 M865.49,54.11c-1.58-2.88-3.71-5.08-6.39-6.62c-2.68-1.54-5.56-2.31-8.63-2.31
		c-3.08,0-5.91,0.75-8.51,2.25c-2.6,1.5-4.71,3.69-6.33,6.56c-1.62,2.88-2.42,6.29-2.42,10.23c0,3.94,0.81,7.39,2.42,10.35
		c1.61,2.96,3.74,5.22,6.39,6.8c2.64,1.58,5.46,2.37,8.46,2.37c3.07,0,5.95-0.77,8.63-2.31c2.68-1.54,4.81-3.74,6.39-6.62
		c1.58-2.88,2.36-6.33,2.36-10.35C867.85,60.43,867.06,56.98,865.49,54.11"/>
	<path class="st0" d="M788.8,21.11c-1.93-1.85-2.9-4.16-2.9-6.92c0-2.76,0.96-5.06,2.9-6.92c1.93-1.85,4.35-2.78,7.27-2.78
		c2.92,0,5.34,0.93,7.27,2.78c1.93,1.85,2.9,4.16,2.9,6.92c0,2.76-0.97,5.07-2.9,6.92c-1.93,1.85-4.36,2.78-7.27,2.78
		C793.15,23.89,790.73,22.97,788.8,21.11"/>
	<path class="st1" d="M424.31,154.06h11.28c-0.53,1.98-1.48,3.56-2.86,4.7c-1.51,1.26-3.5,1.9-5.89,1.9c-1.96,0-3.7-0.43-5.16-1.26
		c-1.46-0.83-2.61-2.04-3.43-3.6c-0.83-1.56-1.25-3.43-1.25-5.56c0-2.06,0.41-3.9,1.22-5.47c0.81-1.55,1.94-2.76,3.37-3.59
		c1.43-0.84,3.11-1.26,4.97-1.26c1.68,0,3.16,0.35,4.41,1.03c1.24,0.68,2.22,1.68,2.93,2.98l0.15,0.28h8.7l-0.22-0.69
		c-1.08-3.4-3.07-6.08-5.93-7.97c-2.84-1.87-6.22-2.82-10.05-2.82c-3.25,0-6.24,0.75-8.9,2.23c-2.66,1.48-4.78,3.59-6.3,6.25
		c-1.51,2.66-2.28,5.7-2.28,9.04s0.77,6.38,2.28,9.02c1.51,2.64,3.63,4.74,6.29,6.22c2.65,1.48,5.66,2.23,8.95,2.23
		c2.93,0,5.61-0.62,7.98-1.85c2.36-1.22,4.32-2.87,5.82-4.89s2.49-4.26,2.96-6.74v-6.34h-19.05V154.06z"/>
	<rect x="452.96" y="133.15" class="st1" width="7.73" height="34.28"/>
	<polygon class="st1" points="471.9,167.43 479.62,167.43 479.62,153.39 490.24,153.39 490.24,147.05 479.62,147.05 479.62,139.59 
		493.47,139.59 493.47,133.15 471.9,133.15 	"/>
	<polygon class="st1" points="501.07,139.59 509.92,139.59 509.92,167.43 517.65,167.43 517.65,139.59 526.5,139.59 526.5,133.15 
		501.07,133.15 	"/>
	<path class="st1" d="M377.33,155.69l3.78-6.65h-8.16l-2.75,4.59l-7.89-7.8c-1.05-1.11-1.81-2.05-2.27-2.79
		c-0.42-0.69-0.64-1.39-0.64-2.08c0-0.67,0.23-1.2,0.7-1.63c0.49-0.44,1.1-0.65,1.86-0.65c0.78,0,1.37,0.22,1.81,0.67
		c0.44,0.45,0.64,1.11,0.61,2.02l-0.02,0.55h7.52l0.03-0.5c0.1-1.65-0.23-3.17-0.97-4.52c-0.75-1.35-1.89-2.45-3.4-3.26
		c-1.5-0.8-3.31-1.2-5.39-1.2c-2.04,0-3.85,0.37-5.39,1.1c-1.56,0.74-2.78,1.77-3.62,3.07c-0.85,1.3-1.28,2.79-1.28,4.41
		c0,1.17,0.2,2.28,0.61,3.31c0.34,0.85,0.84,1.73,1.52,2.63c-2.19,1.08-3.9,2.46-5.08,4.13c-1.3,1.83-1.95,3.92-1.95,6.21
		c0,2.13,0.54,4.03,1.61,5.65c1.07,1.62,2.59,2.88,4.53,3.76c1.92,0.87,4.16,1.31,6.67,1.31c4.38,0,8.16-1.33,11.26-3.95l3.42,3.38
		h9.7l-8.66-8.55C376.15,157.86,376.76,156.79,377.33,155.69 M366.09,159.17c-1.79,1.5-3.85,2.25-6.12,2.25
		c-1.64,0-2.96-0.44-3.93-1.32c-0.97-0.87-1.44-1.92-1.44-3.2c0-2.21,1.3-3.9,3.97-5.17L366.09,159.17z"/>
	<path class="st1" d="M188.16,134.44c-1.88-0.92-4.16-1.39-6.8-1.39H168.6v34.28h7.73v-12.75h5.04c2.8,0,5.17-0.5,7.03-1.49
		c1.88-1,3.28-2.34,4.17-3.98c0.88-1.63,1.32-3.39,1.32-5.25c0-2.05-0.48-3.92-1.43-5.55C191.5,136.68,190.06,135.37,188.16,134.44
		 M185.97,143.86c0,1.38-0.38,2.42-1.17,3.16c-0.78,0.74-2.04,1.12-3.73,1.12h-4.75v-8.6h4.75
		C184.41,139.54,185.97,140.92,185.97,143.86"/>
	<path class="st1" d="M226.76,150.01c1.33-1.85,2.01-3.94,2.01-6.24c0-1.99-0.48-3.82-1.43-5.43c-0.95-1.62-2.39-2.92-4.29-3.87
		c-1.87-0.94-4.16-1.41-6.8-1.41h-13v34.28h7.73v-12.95h2.3l7.33,12.95h8.95l-8.07-13.68C223.77,152.93,225.54,151.7,226.76,150.01
		 M220.85,143.91c0,1.42-0.39,2.49-1.17,3.26c-0.78,0.77-2.02,1.16-3.67,1.16h-5.04v-8.69h5.04c1.66,0,2.9,0.38,3.68,1.12
		C220.47,141.5,220.85,142.53,220.85,143.91"/>
	<rect x="239.46" y="133.05" class="st1" width="7.73" height="34.28"/>
	<polygon class="st1" points="280.15,154.61 265.88,133.01 258.4,133.01 258.4,167.33 266.13,167.33 266.13,145.77 280.4,167.33 
		287.88,167.33 287.88,133.01 280.15,133.01 	"/>
	<polygon class="st1" points="297.33,139.49 306.18,139.49 306.18,167.33 313.91,167.33 313.91,139.49 322.76,139.49 322.76,133.05 
		297.33,133.05 	"/>
	<polygon class="st1" points="584.87,157.05 578.93,133.15 570.68,133.15 564.36,157.24 558.9,133.15 550.64,133.15 559.88,167.48 
		568.49,167.43 574.6,145.29 580.43,167.43 589.1,167.43 598.68,133.15 590.36,133.15 	"/>
	<polygon class="st1" points="615.21,133.15 607.48,133.15 607.48,167.43 626.16,167.43 626.16,161.08 615.21,161.08 	"/>
	<polygon class="st1" points="642.77,161.08 642.77,133.15 635.04,133.15 635.04,167.43 653.71,167.43 653.71,161.08 	"/>
</g>
</svg>
